# xmcd
#
# Track frame offsets: 
#        150
#        27413
#        46471
#        67667
#        95727
#        126354
#        153382
#        172562
#        200989
#        224877
#        255947
#        280766
#
# Disc length: 4094 seconds
#
# Revision: 0
# Processed by: cddbd v1.5.2PL0 Copyright (c) Steve Scherf et al.
# Submitted via: ExactAudioCopy v0.99pb5
#
DISCID=ad0ffc0c
DTITLE=Minh Huyen - Duc Long - Xin Con Goi Ten Nhau
DYEAR=1900
DGENRE=Ballad
TTITLE0=01 Nhu da dau yeu
TTITLE1=02 Chuyen tinh khong suy tu
TTITLE2=03 Chieu tim
TTITLE3=04 Co Don
TTITLE4=05 Trang mo ben suoi
TTITLE5=06 Mat le cho nguoi
TTITLE6=07 Ao anh
TTITLE7=08 Co ua
TTITLE8=09 Nua hon thuong dau
TTITLE9=10 Cho nguoi tinh lo
TTITLE10=11 Loi cuoi cho em
TTITLE11=12 Xin con goi ten nhau
EXTD=
EXTT0=
EXTT1=
EXTT2=
EXTT3=
EXTT4=
EXTT5=
EXTT6=
EXTT7=
EXTT8=
EXTT9=
EXTT10=
EXTT11=
PLAYORDER=
